<?xml version="1.0" standalone="no"?>
<!DOCTYPE svg PUBLIC "-//W3C//DTD SVG 20010904//EN"
 "http://www.w3.org/TR/2001/REC-SVG-20010904/DTD/svg10.dtd">
<svg version="1.0" xmlns="http://www.w3.org/2000/svg"
 width="50.000000pt" height="50.000000pt" viewBox="0 0 50.000000 50.000000"
 preserveAspectRatio="xMidYMid meet">
<metadata>
Created by potrace 1.16, written by Peter Selinger 2001-2019
</metadata>
<g transform="translate(0.000000,50.000000) scale(0.011364,-0.013123)"
fill="#6b7b94" stroke="none">
<path d="M110 3540 c-19 -5 -49 -24 -67 -44 l-33 -36 2 -1502 3 -1503 22 -40
c27 -50 65 -87 123 -117 l45 -23 2052 0 2052 0 31 30 c43 42 52 88 48 254 -4
163 -14 197 -71 231 -31 20 -65 20 -1899 20 l-1868 0 0 1321 c0 1463 5 1354
-64 1395 -26 16 -55 19 -186 21 -85 1 -171 -2 -190 -7z"/>
<path d="M2869 3247 c-59 -31 -100 -92 -107 -155 -8 -88 7 -113 177 -285 l155
-158 -314 -314 -315 -315 -330 330 c-364 363 -372 369 -485 370 -119 0 -137
-13 -482 -358 -169 -168 -314 -320 -323 -338 -18 -38 -19 -87 -4 -117 16 -31
219 -236 251 -253 15 -8 47 -14 71 -14 59 0 85 20 301 239 99 99 182 181 185
181 3 0 152 -146 331 -325 362 -361 373 -369 490 -369 120 0 119 -1 590 469
l425 425 135 -136 c167 -168 204 -194 279 -194 63 0 124 24 158 61 53 58 53
56 53 639 0 597 2 581 -63 620 -31 19 -54 20 -583 20 l-551 0 -44 -23z"/>
</g>
</svg>
