<?xml version="1.0" standalone="no"?>
<!DOCTYPE svg PUBLIC "-//W3C//DTD SVG 20010904//EN"
 "http://www.w3.org/TR/2001/REC-SVG-20010904/DTD/svg10.dtd">
<svg version="1.0" xmlns="http://www.w3.org/2000/svg"
 width="50.000000pt" height="50.000000pt" viewBox="0 0 50.000000 50.000000"
 preserveAspectRatio="xMidYMid meet">
<metadata>
Created by potrace 1.16, written by Peter Selinger 2001-2019
</metadata>
<g transform="translate(0.000000,50.000000) scale(0.009124,-0.010571)"
fill="#6b7b94" stroke="none">
<path d="M4415 4531 c-22 -10 -233 -130 -470 -267 l-430 -249 -495 -5 c-607
-7 -526 11 -846 -186 -149 -92 -196 -132 -231 -197 -17 -30 -18 -78 -18 -652
l0 -620 29 -63 c81 -174 291 -245 466 -157 64 33 133 110 159 178 20 56 21 73
21 467 l0 410 808 0 c874 0 875 0 984 -55 111 -56 197 -158 238 -281 18 -52
24 -100 29 -225 l6 -158 345 199 c190 110 362 216 382 236 54 53 78 111 78
189 0 36 -6 81 -14 99 -25 59 -698 1219 -733 1263 -68 85 -209 120 -308 74z"/>
<path d="M1355 3298 c-154 -92 -301 -186 -328 -207 -53 -44 -115 -118 -141
-170 -47 -91 -49 -107 -55 -385 l-6 -270 -348 -200 c-191 -111 -363 -213 -381
-228 -53 -43 -86 -119 -85 -197 0 -38 7 -84 17 -108 33 -80 707 -1234 742
-1270 58 -59 104 -78 190 -78 90 0 39 -25 597 296 l432 249 625 0 625 0 78 25
c125 39 218 112 295 229 42 65 78 168 78 225 0 20 4 41 8 47 4 6 51 14 105 17
117 7 188 36 237 97 63 80 64 86 68 416 l4 301 59 7 c97 10 162 53 194 128 12
30 15 83 15 280 0 234 -1 245 -24 293 -27 58 -47 78 -99 100 -31 13 -126 15
-706 15 l-669 0 -4 -292 c-5 -323 -8 -339 -76 -473 -44 -88 -151 -197 -243
-248 -126 -70 -285 -93 -431 -62 -167 35 -338 167 -412 316 -71 143 -69 124
-75 750 l-6 566 -280 -169z"/>
</g>
</svg>
