<svg xmlns="http://www.w3.org/2000/svg" fill="none" viewBox="0 0 31 32"><path fill="#021035" fill-opacity=".01" fill-rule="evenodd" d="M14.208 23.75a9.042 9.042 0 119.042-9.041c0 2.03-.67 3.905-1.8 5.415l2.713 2.713a1.292 1.292 0 11-1.826 1.827l-2.714-2.714a9.002 9.002 0 01-5.415 1.8zm0-2.583a6.458 6.458 0 100-12.917 6.458 6.458 0 000 12.917z" clip-rule="evenodd"/><mask id="a" width="20" height="21" x="5" y="5" maskUnits="userSpaceOnUse"><path fill="#fff" fill-rule="evenodd" d="M14.208 23.75a9.042 9.042 0 119.042-9.041c0 2.03-.67 3.905-1.8 5.415l2.713 2.713a1.292 1.292 0 11-1.826 1.827l-2.714-2.714a9.002 9.002 0 01-5.415 1.8zm0-2.583a6.458 6.458 0 100-12.917 6.458 6.458 0 000 12.917z" clip-rule="evenodd"/></mask><g mask="url(#a)"><path fill="#00AEEF" d="M0 .5h31v31H0z"/></g></svg>