<svg xmlns="http://www.w3.org/2000/svg" fill="none" viewBox="0 0 19 18"><path fill="#00AEEF" fill-rule="evenodd" d="M16.078 2.637C14.32.879 12.198 0 9.714 0S5.11.879 3.351 2.637.714 6.516.714 9c0 2.484.88 4.605 2.637 6.363C5.11 17.121 7.23 18 9.714 18c2.485 0 4.606-.879 6.364-2.637S18.714 11.484 18.714 9c0-2.484-.878-4.605-2.636-6.363zM12.035 9h-1.477v5.414H8.554V9h-1.37V7.137h1.37v-1.09c0-.82.153-1.436.457-1.846.305-.41.88-.615 1.723-.615h1.476v1.863h-.914c-.328 0-.533.059-.615.176-.082.117-.123.316-.123.598v.914h1.688L12.035 9z" clip-rule="evenodd"/></svg>