<svg xmlns="http://www.w3.org/2000/svg" fill="none" viewBox="0 0 18 18"><path fill="#00AEEF" fill-rule="evenodd" d="M2.893 2.571C4.633.857 6.723 0 9.16 0c2.437 0 4.52.85 6.248 2.551C17.136 4.252 18 6.321 18 8.76c0 2.437-.864 4.507-2.591 6.207-1.728 1.701-3.81 2.552-6.248 2.552-1.474 0-2.893-.362-4.26-1.085L0 18l1.607-4.7C.75 11.88.321 10.365.321 8.758c0-2.438.858-4.5 2.572-6.188zm10.647 9.523c.215-.536.281-.884.201-1.045-.027-.053-.174-.147-.442-.281-.053-.027-.294-.16-.723-.402-.429-.241-.683-.375-.764-.402-.214-.08-.388-.04-.522.12-.053.054-.18.195-.381.423-.201.227-.329.368-.382.422-.107.133-.268.147-.482.04-.697-.348-1.286-.75-1.768-1.206-.536-.509-.938-1.03-1.206-1.567-.08-.16-.04-.321.121-.482l.362-.361c.08-.08.16-.201.24-.362.054-.107.054-.241 0-.402 0-.027-.046-.147-.14-.361a10.315 10.315 0 01-.281-.724 15.94 15.94 0 00-.221-.602c-.107-.295-.281-.442-.523-.442h-.401c-.215 0-.415.094-.603.281-.563.563-.857 1.179-.884 1.848-.027.777.255 1.554.844 2.33l.12.161a11.09 11.09 0 00.683 1.005c.161.214.349.428.563.643.214.214.435.428.663.643.228.214.495.415.803.602.308.188.61.348.904.482.965.402 1.648.63 2.05.683.401.054.616.04.642-.04.242-.027.536-.14.884-.341s.563-.422.643-.663z" clip-rule="evenodd"/></svg>