<svg xmlns="http://www.w3.org/2000/svg" fill="none" viewBox="0 0 14 4"><path fill="#00AEEF" fill-rule="evenodd" d="M.8 2.36a1.44 1.44 0 102.88 0 1.44 1.44 0 00-2.88 0zM7.28 3.8a1.44 1.44 0 110-2.88 1.44 1.44 0 010 2.88zm5.04 0a1.44 1.44 0 110-2.88 1.44 1.44 0 010 2.88z" clip-rule="evenodd"/><mask id="a" width="14" height="4" x="0" y="0" maskUnits="userSpaceOnUse"><path fill="#fff" fill-rule="evenodd" d="M.8 2.36a1.44 1.44 0 102.88 0 1.44 1.44 0 00-2.88 0zM7.28 3.8a1.44 1.44 0 110-2.88 1.44 1.44 0 010 2.88zm5.04 0a1.44 1.44 0 110-2.88 1.44 1.44 0 010 2.88z" clip-rule="evenodd"/></mask><g mask="url(#a)"><path fill="#00AEEF" fill-rule="evenodd" d="M-1.36-6.28h17.28V11H-1.36V-6.28z" clip-rule="evenodd"/></g></svg>