<?xml version="1.0" standalone="no"?>
<!DOCTYPE svg PUBLIC "-//W3C//DTD SVG 20010904//EN"
 "http://www.w3.org/TR/2001/REC-SVG-20010904/DTD/svg10.dtd">
<svg version="1.0" xmlns="http://www.w3.org/2000/svg"
 width="50.000000pt" height="50.000000pt" viewBox="0 0 50.000000 50.000000"
 preserveAspectRatio="xMidYMid meet">
<metadata>
Created by potrace 1.16, written by Peter Selinger 2001-2019
</metadata>
<g transform="translate(0.000000,50.000000) scale(0.011792,-0.011765)"
fill="#6b7b94" stroke="none">
<path d="M2000 4239 c-668 -37 -1272 -384 -1646 -946 -81 -123 -175 -305 -220
-429 -97 -270 -146 -587 -129 -838 l7 -106 26 19 c55 38 113 60 310 117 l202
58 0 81 c1 185 65 446 157 628 81 162 160 272 291 405 166 168 347 286 572
373 338 131 763 131 1100 0 491 -190 849 -587 975 -1081 45 -176 59 -453 31
-636 -51 -331 -209 -637 -453 -875 -293 -287 -601 -423 -1030 -455 -51 -3 -93
-8 -93 -10 0 -1 -24 -89 -53 -196 -52 -185 -81 -262 -115 -301 -8 -9 -12 -20
-8 -24 13 -13 266 -16 394 -4 660 62 1254 432 1606 1000 149 241 238 481 287
776 29 172 31 465 5 635 -107 702 -533 1285 -1166 1597 -324 160 -682 232
-1050 212z"/>
<path d="M1987 3210 c-147 -17 -327 -84 -465 -173 -87 -56 -197 -160 -263
-246 -94 -124 -190 -349 -213 -498 l-6 -42 47 14 c27 7 167 48 312 90 204 58
268 81 280 97 34 50 131 130 196 163 312 159 690 -15 777 -359 49 -194 -13
-393 -168 -535 l-63 -58 -86 -302 c-47 -167 -84 -305 -81 -308 11 -12 179 31
277 71 410 165 679 560 679 995 0 478 -298 893 -750 1044 -129 43 -330 63
-473 47z"/>
<path d="M1153 1995 c-507 -144 -938 -272 -956 -284 -45 -27 -61 -67 -55 -133
5 -45 11 -57 41 -83 19 -16 166 -93 325 -169 l291 -139 -387 -394 c-213 -217
-393 -408 -400 -425 -26 -62 -10 -93 111 -216 62 -63 124 -120 139 -128 32
-17 81 -18 111 -3 12 6 198 187 414 402 l392 390 54 -114 c249 -526 246 -521
305 -546 64 -27 144 3 176 65 26 51 536 1867 536 1909 0 69 -70 134 -142 132
-18 0 -448 -119 -955 -264z"/>
</g>
</svg>
